PathFileType	4	(X/Y/Z)	41_1_5_p0_0-258.trc
DataRate	CameraRate	NumFrames	NumMarkers	Units	OrigDataRate	OrigDataStartFrame	OrigNumFrames
59.0	59.0	5	27	m	59.0	161	259
Frame#	Time	RHip			RKnee			RAnkle			RBigToe			RSmallToe			RHeel			LHip			LKnee			LAnkle			LBigToe			LSmallToe			LHeel			Neck			Head			Nose			RShoulder			RElbow			RWrist			RThumb			RIndex			RPinky			LShoulder			LElbow			LWrist			LThumb			LIndex			LPinky			
		X1	Y1	Z1	X2	Y2	Z2	X3	Y3	Z3	X4	Y4	Z4	X5	Y5	Z5	X6	Y6	Z6	X7	Y7	Z7	X8	Y8	Z8	X9	Y9	Z9	X10	Y10	Z10	X11	Y11	Z11	X12	Y12	Z12	X13	Y13	Z13	X14	Y14	Z14	X15	Y15	Z15	X16	Y16	Z16	X17	Y17	Z17	X18	Y18	Z18	X19	Y19	Z19	X20	Y20	Z20	X21	Y21	Z21	X22	Y22	Z22	X23	Y23	Z23	X24	Y24	Z24	X25	Y25	Z25	X26	Y26	Z26	X27	Y27	Z27	
161	2.7288135593220337	0.37641653027790273	0.4877655032358625	-0.05734339522483937	0.38820104174103426	0.6101680809002473	0.3552765035201447	0.39243225837883905	0.6940747803118356	0.716653801524547	0.3653308377345489	0.5479298108199464	0.7581544603937893	0.4288040189532845	0.5329687219139895	0.7423214068068817	0.3647340047889933	0.7850022684845777	0.7825150801508081	0.19572498923933346	0.5402381722204331	-0.04414657880747307	0.17213336808409332	0.6559628614413572	0.38006606774590107	0.18616312396178988	0.70114568387567	0.748274524058509	0.19077998740887908	0.49793261600546	0.729006683558062	0.14446553029461343	0.5665786714413582	0.7489006396474585	0.20471947337768068	0.7471965964118517	0.7906829571187556	0.2776909038023706	0.5166712531389532	-0.5523368516649398	0.2639402802162708	0.47879938165471575	-0.7932851041407696	0.2650288879759034	0.3699454996957998	-0.676122647285895	0.41672222663843445	0.5208153675481391	-0.44759770653779285	0.5461669711957532	0.5338068998792864	-0.25045828962163696	0.6522490121478524	0.39945725273915517	-0.10632907431918107	0.6435203706749382	0.30705004825418825	-0.007770817300788003	0.7018566648187505	0.3229975927326325	0.0011766247131978474	0.7365459097910532	0.42445638097608424	0.016984883762443666	0.11454596397890678	0.539652288462476	-0.46230088945825853	0.003209146525800298	0.525335529329595	-0.26664858571802735	-0.12325169185132391	0.4804486803734572	-0.11655337648144713	-0.16669608817580475	0.3944760837878814	-0.03380086480566804	-0.21578701128015285	0.4486429704049642	-0.01693828090235042	-0.2170981578059839	0.5226621388141269	0.00032037189072816485
162	2.7457627118644066	0.3764672427359927	0.4877320962743325	-0.057297782918451494	0.39304671978996425	0.623828654271879	0.36007330922971964	0.39378732173764974	0.6962084534861978	0.7221042655046486	0.36517981282726125	0.5476921340973259	0.7584071440261912	0.428337555859225	0.5323445841098147	0.742365395237097	0.36976132924532984	0.7996957244694284	0.7898537079261737	0.19599204104212728	0.5298327919094685	-0.04678546110849328	0.17721848633431572	0.6408900103863691	0.37041332838511765	0.18624647321397145	0.7013009864520747	0.7482815402005696	0.19073804123676522	0.4981934565138137	0.729197322652059	0.14432537309380838	0.5669675974591479	0.7490666663257532	0.2049307310334717	0.7477492294467132	0.7909128749842679	0.27770187679498487	0.516670889329171	-0.5523619528361182	0.2639497624713761	0.4787390040394665	-0.7932529117461058	0.26510257508323143	0.3700107080437297	-0.6760980554328125	0.4168714472412313	0.520815782125914	-0.4475804798272459	0.546286210597218	0.5334851231353898	-0.2503397187948729	0.6574927006028843	0.41016609692664946	-0.10361238047165519	0.657915586071226	0.33221765986119545	-0.006095454368868287	0.7128117168226562	0.3196407881056405	-0.0006017244366838387	0.7494773303206061	0.43117567352222413	0.014207533394027026	0.11455467200801615	0.539613141185524	-0.4623317157815033	-0.004817764820975026	0.5222064419026713	-0.2596429819662486	-0.12739282167561602	0.47896768058414346	-0.11698441067645957	-0.1645468723429637	0.41131711363202744	-0.029138790449848923	-0.21600261374098897	0.44909261423027347	-0.01692379862234184	-0.22287357501287786	0.5061597320526326	-0.007930686387837898
163	2.76271186440678	0.37656696460285227	0.48792086235073284	-0.0572810333772774	0.3886444693106745	0.6231465105839876	0.3600519407626761	0.3937262339013122	0.6961319455317843	0.7221075194262064	0.36520877592958684	0.5474823522305549	0.7581603970873263	0.4282662556247216	0.5319410775035487	0.7422108085468377	0.3648009067992403	0.7851855126384797	0.7827420068440314	0.1959611924549343	0.5296510270202567	-0.046880247961750734	0.17727162296280338	0.6411125321262887	0.3706238015705462	0.18625193103684728	0.7012885620980842	0.7483688554994062	0.1907063108235158	0.4979152445569528	0.7290173968979389	0.14348439247440262	0.5673403541797936	0.7529502915440258	0.20521041161868817	0.7479613705596811	0.7908964612759056	0.2777137480851779	0.5166429260651643	-0.5523850506355249	0.2639611774694255	0.47877839435639263	-0.7932929204524682	0.26507534490243934	0.369908670273659	-0.6761049752656422	0.4168682019733294	0.5206858044562307	-0.4476491441204573	0.5466962420241941	0.5335760965350864	-0.2540618292561483	0.659061373425898	0.4106118939114556	-0.09616854127901404	0.6814822412274797	0.3786050462514598	0.010269565671876505	0.7209501569649707	0.34313258142216313	0.006061951876420567	0.7569346594582173	0.42893759107444873	0.012959510961793924	0.11458003309897323	0.5394146985700408	-0.462421321250542	-0.0088087627879903	0.5205108203237446	-0.25977890301956347	-0.13262109291283578	0.4914279280915503	-0.11756498206280656	-0.1805841213775805	0.4068230802232172	-0.04116553060573354	-0.22255664728438007	0.4637721217457922	-0.020168902246079343	-0.22288797294923934	0.5081420036808277	-0.011705887044323331
164	2.7796610169491527	0.37655460983796635	0.4879925515959237	-0.05735192501199996	0.39286969251989873	0.6253313736614176	0.3564905725168129	0.3937366122480802	0.6959526641497729	0.7219988181064765	0.36528154980325733	0.547310543536008	0.7581245837222734	0.4285189054467543	0.5319180132287381	0.7420640409036663	0.36478956707445664	0.785036305371986	0.7826045472914528	0.20025770255441333	0.5416169500670476	-0.04805009152856762	0.18154128464156305	0.6413118554593343	0.37026198350606715	0.18620606768938242	0.7013788527415981	0.7482854848258997	0.19079916514031045	0.4980767031128114	0.7290140250795866	0.14351889416115726	0.5671164414705288	0.7527942738865232	0.20503541575009823	0.7476312747908398	0.790726687064972	0.2777139619676072	0.5166799345141877	-0.5523963364151475	0.2639768696849204	0.4787618918969781	-0.793318643335491	0.26510780503743225	0.3699956759960767	-0.6760206701055307	0.41673231156657214	0.5206064957582848	-0.4477288030232741	0.5470969289142129	0.5341432546476732	-0.25812207122648817	0.6631975770109323	0.4213931579304951	-0.10101135448122475	0.6906108878192664	0.36531772930081596	0.004671416439754279	0.7225649195510073	0.3299905734403574	-0.0018656818674715712	0.7633742714663978	0.4412415167619901	0.019544446913551807	0.11462632500640291	0.5394695547945766	-0.46250567252868574	-0.008448624944922083	0.520131046243431	-0.26356395918114267	-0.13284383888486637	0.49142838201720646	-0.1179817091379975	-0.1787093164856583	0.3937066143720243	-0.04814618716015077	-0.222502941726626	0.4640438060910889	-0.0244009745773419	-0.2282858287324559	0.5207588476113197	-0.008570142079664868
165	2.7966101694915255	0.3756261991792782	0.4862872281989851	-0.0615305984305046	0.39318901004960655	0.6239268720322159	0.3601642969693994	0.3937851008573987	0.6957096005673432	0.7218998782915498	0.36527415453575696	0.547187158624358	0.758037552621934	0.4309982246115713	0.5162806144663054	0.7339704836706772	0.3652090991491141	0.7835523567763222	0.786613173353282	0.19183720154114528	0.5276659022460043	-0.047467947205444366	0.1775326760754206	0.6395815210250484	0.3738021845548077	0.18619102241155136	0.7014086102976941	0.7484563705165125	0.19074456741342755	0.4982281976730073	0.7291411910146008	0.14434208297107315	0.5669010394539414	0.7490916539554681	0.20489668830781732	0.748437620454717	0.7913726150091244	0.27770400460456385	0.5166810176519818	-0.5524057538151615	0.2640084982613643	0.478783409341478	-0.7932852887940319	0.2651525684775581	0.3700686900174871	-0.6760607202693788	0.4168400886110014	0.520725970871335	-0.4514337916481799	0.546137254018705	0.5323879083326728	-0.2583215997133059	0.6673504745714283	0.42083552285236425	-0.09816285132436955	0.6922309231445462	0.3750666615501453	0.008179282909127223	0.7249645505004447	0.3180421911873222	-0.005585557374648911	0.7655904629559805	0.4547548813912874	0.022490690364100143	0.11461950132534855	0.5392963554342314	-0.4626358586822323	-0.00920013585200008	0.5212863139249693	-0.2633189628453406	-0.13312118897472053	0.4921862457010817	-0.1177676961308925	-0.19018762916151538	0.45857910836712407	-0.03130746591880543	-0.22827855811608616	0.4767296413950717	-0.02435069960324896	-0.24996438559869805	0.5566001457748828	0.0019751821704948273
